<?xml version="1.0" encoding="utf-8"?>
<!-- Generator: Adobe Illustrator 16.0.0, SVG Export Plug-In . SVG Version: 6.00 Build 0)  -->
<!DOCTYPE svg PUBLIC "-//W3C//DTD SVG 1.1//EN" "http://www.w3.org/Graphics/SVG/1.1/DTD/svg11.dtd">
<svg version="1.1" id="Layer_1" xmlns="http://www.w3.org/2000/svg" xmlns:xlink="http://www.w3.org/1999/xlink" x="0px" y="0px"
	 width="24px" height="24px" viewBox="0 0 512 512" enable-background="new 0 0 512 512" xml:space="preserve">
<g id="plus">
	<g id="plus_1_">
		<g>
			<path d="M488.5,256c0,9.1-6.83,16.5-15.23,16.5H272.5v200.77c0,8.4-7.4,15.23-16.5,15.23c-9.1,0-16.5-6.83-16.5-15.23V272.5
				H38.73c-8.4,0-15.23-7.4-15.23-16.5c0-9.1,6.83-16.5,15.23-16.5H239.5V38.73c0-8.4,7.4-15.23,16.5-15.23
				c9.1,0,16.5,6.83,16.5,15.23V239.5h200.77C481.67,239.5,488.5,246.9,488.5,256z"/>
		</g>
	</g>
	<g id="cross" display="none">
		<g display="inline">
			<path d="M239.5,233.77v5.73h-19.73L96,115.73c-3.02-3.02-2.61-8.31,0.9-11.83c3.52-3.51,8.81-3.92,11.83-0.9L239.5,233.77z"/>
			<path d="M416,115.73L292.23,239.5H272.5v-5.73L403.27,103c3.021-3.02,8.311-2.61,11.83,0.9
				C418.62,107.42,419.01,112.71,416,115.73z"/>
			<path d="M239.5,272.5v19.73L108.73,423c-3.02,3.02-8.32,2.61-11.83-0.9c-3.52-3.52-3.92-8.81-0.9-11.83L233.77,272.5H239.5z"/>
			<path d="M415.1,422.1c-3.52,3.521-8.81,3.92-11.83,0.9L272.5,292.23V272.5h5.73L416,410.27
				C419.02,413.29,418.61,418.59,415.1,422.1z"/>
			<path d="M239.5,272.5h-16.34L90.7,404.96c-2.99,2.99-4.51,7.22-4.18,11.61c0.31,4.02,2.11,7.859,5.08,10.83
				c3.25,3.26,7.64,5.119,12.04,5.119c3.98,0,7.67-1.5,10.39-4.22L239.5,302.83v-21.21L103.6,417.52c-0.33-0.01-0.88-0.21-1.4-0.72
				c-0.58-0.59-0.71-1.149-0.72-1.399L239.5,277.38V272.5z M421.3,404.97L288.83,272.5H272.5v4.88L410.52,415.4
				c-0.01,0.25-0.14,0.81-0.729,1.399c-0.51,0.51-1.06,0.71-1.39,0.72L272.5,281.62v21.21L397.96,428.3
				c2.73,2.72,6.42,4.22,10.4,4.22c4.399,0,8.79-1.859,12.04-5.119c2.97-2.96,4.77-6.811,5.08-10.83
				C425.81,412.18,424.29,407.96,421.3,404.97z M114.03,97.7c-2.72-2.72-6.41-4.22-10.39-4.22c-4.4,0-8.79,1.86-12.04,5.12
				c-2.97,2.97-4.77,6.81-5.08,10.83c-0.33,4.39,1.19,8.62,4.18,11.61L209.16,239.5h21.22l-128.9-128.9
				c0.01-0.25,0.14-0.81,0.72-1.39c0.5-0.5,1.02-0.7,1.41-0.72L234.62,239.5h4.88v-16.33L114.03,97.7z M420.4,98.6
				c-3.25-3.26-7.641-5.12-12.04-5.12c-3.98,0-7.67,1.5-10.4,4.22L272.5,223.17v16.33h4.88L408.4,108.48
				c0.33,0.01,0.88,0.21,1.399,0.73c0.58,0.58,0.71,1.14,0.72,1.39L281.62,239.5h21.21L421.3,121.03
				C427.24,115.09,426.83,105.03,420.4,98.6z"/>
		</g>
	</g>
</g>
</svg>
