<svg xmlns="http://www.w3.org/2000/svg" width="24" height="24" viewBox="0 0 24 24"><g fill="none" stroke="black" stroke-linecap="round" stroke-linejoin="round" stroke-width="1.55"><path d="M11.962 17.986h6.81a1.555 1.555 0 0 0 1.512-2.175c-.36-1.088-1.795-2.393-1.795-3.677c0-2.85 0-3.6-1.404-5.276a5.025 5.025 0 0 0-1.653-1.283l-.783-.38a1.089 1.089 0 0 1-.511-.73a2.023 2.023 0 0 0-2.176-1.707a2.023 2.023 0 0 0-2.12 1.707a1.089 1.089 0 0 1-.567.73l-.783.38A5.025 5.025 0 0 0 6.84 6.858c-1.403 1.676-1.403 2.426-1.403 5.276c0 1.284-1.37 2.458-1.73 3.611c-.217.697-.337 2.241 1.48 2.241z"/><path d="M15.225 17.986a3.198 3.198 0 0 1-3.263 3.263A3.195 3.195 0 0 1 8.7 17.986"/></g></svg>